%TF.GenerationSoftware,KiCad,Pcbnew,(6.0.10)*%
%TF.CreationDate,2023-02-17T09:16:45-08:00*%
%TF.ProjectId,Excercise2,45786365-7263-4697-9365-322e6b696361,rev?*%
%TF.SameCoordinates,Original*%
%TF.FileFunction,Copper,L1,Top*%
%TF.FilePolarity,Positive*%
%FSLAX46Y46*%
G04 Gerber Fmt 4.6, Leading zero omitted, Abs format (unit mm)*
G04 Created by KiCad (PCBNEW (6.0.10)) date 2023-02-17 09:16:45*
%MOMM*%
%LPD*%
G01*
G04 APERTURE LIST*
G04 Aperture macros list*
%AMRoundRect*
0 Rectangle with rounded corners*
0 $1 Rounding radius*
0 $2 $3 $4 $5 $6 $7 $8 $9 X,Y pos of 4 corners*
0 Add a 4 corners polygon primitive as box body*
4,1,4,$2,$3,$4,$5,$6,$7,$8,$9,$2,$3,0*
0 Add four circle primitives for the rounded corners*
1,1,$1+$1,$2,$3*
1,1,$1+$1,$4,$5*
1,1,$1+$1,$6,$7*
1,1,$1+$1,$8,$9*
0 Add four rect primitives between the rounded corners*
20,1,$1+$1,$2,$3,$4,$5,0*
20,1,$1+$1,$4,$5,$6,$7,0*
20,1,$1+$1,$6,$7,$8,$9,0*
20,1,$1+$1,$8,$9,$2,$3,0*%
G04 Aperture macros list end*
%TA.AperFunction,SMDPad,CuDef*%
%ADD10RoundRect,0.250000X-0.350000X-0.450000X0.350000X-0.450000X0.350000X0.450000X-0.350000X0.450000X0*%
%TD*%
%TA.AperFunction,SMDPad,CuDef*%
%ADD11RoundRect,0.250001X-0.462499X-0.624999X0.462499X-0.624999X0.462499X0.624999X-0.462499X0.624999X0*%
%TD*%
%TA.AperFunction,SMDPad,CuDef*%
%ADD12RoundRect,0.150000X-0.825000X-0.150000X0.825000X-0.150000X0.825000X0.150000X-0.825000X0.150000X0*%
%TD*%
%TA.AperFunction,SMDPad,CuDef*%
%ADD13RoundRect,0.250000X-0.337500X-0.475000X0.337500X-0.475000X0.337500X0.475000X-0.337500X0.475000X0*%
%TD*%
%TA.AperFunction,SMDPad,CuDef*%
%ADD14RoundRect,0.250000X-0.537500X-0.425000X0.537500X-0.425000X0.537500X0.425000X-0.537500X0.425000X0*%
%TD*%
%TA.AperFunction,ComponentPad*%
%ADD15R,3.000000X3.000000*%
%TD*%
%TA.AperFunction,ComponentPad*%
%ADD16C,3.000000*%
%TD*%
%TA.AperFunction,ViaPad*%
%ADD17C,0.800000*%
%TD*%
%TA.AperFunction,Conductor*%
%ADD18C,0.250000*%
%TD*%
G04 APERTURE END LIST*
D10*
%TO.P,R2,1*%
%TO.N,/pin_7*%
X134490000Y-93825000D03*
%TO.P,R2,2*%
%TO.N,/pin_2*%
X136490000Y-93825000D03*
%TD*%
D11*
%TO.P,D1,1,K*%
%TO.N,Net-(D1-Pad1)*%
X155647500Y-79970000D03*
%TO.P,D1,2,A*%
%TO.N,+9V*%
X158622500Y-79970000D03*
%TD*%
D10*
%TO.P,R4,1*%
%TO.N,/pin_3*%
X154780000Y-86825000D03*
%TO.P,R4,2*%
%TO.N,Net-(D2-Pad2)*%
X156780000Y-86825000D03*
%TD*%
D12*
%TO.P,U1,1,GND*%
%TO.N,GND*%
X147415000Y-76835000D03*
%TO.P,U1,2,TR*%
%TO.N,/pin_2*%
X147415000Y-78105000D03*
%TO.P,U1,3,Q*%
%TO.N,/pin_3*%
X147415000Y-79375000D03*
%TO.P,U1,4,R*%
%TO.N,+9V*%
X147415000Y-80645000D03*
%TO.P,U1,5,CV*%
%TO.N,Net-(C2-Pad1)*%
X152365000Y-80645000D03*
%TO.P,U1,6,THR*%
%TO.N,/pin_2*%
X152365000Y-79375000D03*
%TO.P,U1,7,DIS*%
%TO.N,/pin_7*%
X152365000Y-78105000D03*
%TO.P,U1,8,VCC*%
%TO.N,+9V*%
X152365000Y-76835000D03*
%TD*%
D10*
%TO.P,R1,1*%
%TO.N,+9V*%
X140240000Y-93935000D03*
%TO.P,R1,2*%
%TO.N,/pin_7*%
X142240000Y-93935000D03*
%TD*%
D11*
%TO.P,D2,1,K*%
%TO.N,GND*%
X146910000Y-87220000D03*
%TO.P,D2,2,A*%
%TO.N,Net-(D2-Pad2)*%
X149885000Y-87220000D03*
%TD*%
D13*
%TO.P,C2,1*%
%TO.N,Net-(C2-Pad1)*%
X140793752Y-87470000D03*
%TO.P,C2,2*%
%TO.N,GND*%
X142868752Y-87470000D03*
%TD*%
D14*
%TO.P,C1,1*%
%TO.N,/pin_2*%
X134122500Y-87500000D03*
%TO.P,C1,2*%
%TO.N,GND*%
X136997500Y-87500000D03*
%TD*%
D10*
%TO.P,R3,1*%
%TO.N,Net-(D1-Pad1)*%
X147350000Y-94075000D03*
%TO.P,R3,2*%
%TO.N,/pin_3*%
X149350000Y-94075000D03*
%TD*%
D15*
%TO.P,J1,1,Pin_1*%
%TO.N,+9V*%
X137160000Y-78740000D03*
D16*
%TO.P,J1,2,Pin_2*%
%TO.N,GND*%
X142240000Y-78740000D03*
%TD*%
D17*
%TO.N,/pin_2*%
X157480000Y-83820000D03*
X147320000Y-83820000D03*
X157480000Y-83820000D03*
%TO.N,GND*%
X144780000Y-88900000D03*
X144780000Y-83820000D03*
X144780000Y-86360000D03*
X129540000Y-86360000D03*
X137160000Y-91440000D03*
X144780000Y-86360000D03*
X144780000Y-83820000D03*
%TO.N,Net-(C2-Pad1)*%
X144780000Y-91440000D03*
X142240000Y-88900000D03*
X142240000Y-88900000D03*
%TO.N,+9V*%
X147320000Y-81280000D03*
X139700000Y-83820000D03*
X147320000Y-81280000D03*
X152400000Y-73660000D03*
X147320000Y-81280000D03*
X147320000Y-81280000D03*
X139700000Y-91440000D03*
%TO.N,Net-(D2-Pad2)*%
X154940000Y-91440000D03*
X147320000Y-91440000D03*
%TO.N,/pin_3*%
X152400000Y-83820000D03*
X149860000Y-81280000D03*
X152400000Y-83820000D03*
X152400000Y-83820000D03*
%TD*%
D18*
%TO.N,/pin_2*%
X148715000Y-79028249D02*
X148715000Y-80991751D01*
X147415000Y-78105000D02*
X147791751Y-78105000D01*
X148715000Y-80991751D02*
X143346751Y-86360000D01*
X147320000Y-82386751D02*
X148715000Y-80991751D01*
X152365000Y-79375000D02*
X152741751Y-79375000D01*
X156348172Y-78770000D02*
X157480000Y-79901828D01*
X157480000Y-79901828D02*
X157480000Y-83820000D01*
X147791751Y-78105000D02*
X148715000Y-79028249D01*
X135262500Y-86360000D02*
X134122500Y-87500000D01*
X152741751Y-79375000D02*
X153346751Y-78770000D01*
X143346751Y-86360000D02*
X135262500Y-86360000D01*
X153346751Y-78770000D02*
X156348172Y-78770000D01*
X134122500Y-91457500D02*
X136490000Y-93825000D01*
X134122500Y-87500000D02*
X134122500Y-91457500D01*
X147320000Y-83820000D02*
X147320000Y-82386751D01*
%TO.N,GND*%
X144496853Y-78740000D02*
X142240000Y-78740000D01*
X129540000Y-86360000D02*
X133510000Y-86360000D01*
X144780000Y-86360000D02*
X143670000Y-87470000D01*
X140415000Y-76915000D02*
X135335000Y-76915000D01*
X146401853Y-76835000D02*
X144496853Y-78740000D01*
X142240000Y-78740000D02*
X140415000Y-76915000D01*
X142240000Y-80195000D02*
X142868752Y-80195000D01*
X145230000Y-88900000D02*
X144780000Y-88900000D01*
X143274823Y-85325177D02*
X144780000Y-83820000D01*
X136997500Y-87500000D02*
X137160000Y-87662500D01*
X143983147Y-87156853D02*
X142752652Y-88387348D01*
X142240000Y-78740000D02*
X142240000Y-80195000D01*
X135335000Y-84535000D02*
X136125177Y-85325177D01*
X146910000Y-87220000D02*
X145230000Y-88900000D01*
X147415000Y-76835000D02*
X146401853Y-76835000D01*
X137160000Y-87662500D02*
X137160000Y-91440000D01*
X135335000Y-76915000D02*
X135335000Y-84535000D01*
X133510000Y-86360000D02*
X135335000Y-84535000D01*
X136125177Y-85325177D02*
X143274823Y-85325177D01*
X144780000Y-86360000D02*
X143983147Y-86360000D01*
X143983147Y-86360000D02*
X143983147Y-87156853D01*
X143670000Y-87470000D02*
X142868752Y-87470000D01*
%TO.N,Net-(C2-Pad1)*%
X142223752Y-88900000D02*
X140793752Y-87470000D01*
X142240000Y-88900000D02*
X142223752Y-88900000D01*
X152365000Y-80645000D02*
X147947500Y-85062500D01*
X147947500Y-88272500D02*
X144780000Y-91440000D01*
X147947500Y-85062500D02*
X147947500Y-88272500D01*
%TO.N,Net-(D1-Pad1)*%
X151675000Y-89750000D02*
X147350000Y-94075000D01*
X151675000Y-83519695D02*
X151675000Y-89750000D01*
X155647500Y-79970000D02*
X155224695Y-79970000D01*
X155224695Y-79970000D02*
X151675000Y-83519695D01*
%TO.N,+9V*%
X152400000Y-76800000D02*
X152400000Y-73660000D01*
X152365000Y-76835000D02*
X155487500Y-76835000D01*
X139700000Y-93395000D02*
X139700000Y-91440000D01*
X137160000Y-78740000D02*
X139065000Y-80645000D01*
X152365000Y-76835000D02*
X152400000Y-76800000D01*
X155487500Y-76835000D02*
X158622500Y-79970000D01*
X147320000Y-80740000D02*
X147415000Y-80645000D01*
X139065000Y-80645000D02*
X147415000Y-80645000D01*
X139700000Y-83820000D02*
X139700000Y-81280000D01*
X140240000Y-93935000D02*
X139700000Y-93395000D01*
X147320000Y-81280000D02*
X147320000Y-80740000D01*
X139700000Y-81280000D02*
X139065000Y-80645000D01*
%TO.N,Net-(D2-Pad2)*%
X147320000Y-91440000D02*
X149885000Y-88875000D01*
X156780000Y-86825000D02*
X156780000Y-89600000D01*
X156780000Y-89600000D02*
X154940000Y-91440000D01*
X149885000Y-88875000D02*
X149885000Y-87220000D01*
%TO.N,/pin_7*%
X151065000Y-81164328D02*
X151065000Y-79028249D01*
X139700000Y-99060000D02*
X142240000Y-96520000D01*
X134490000Y-93825000D02*
X134490000Y-93850000D01*
X151988249Y-78105000D02*
X152365000Y-78105000D01*
X142240000Y-93935000D02*
X142240000Y-89989328D01*
X142240000Y-89989328D02*
X151065000Y-81164328D01*
X134490000Y-93850000D02*
X139700000Y-99060000D01*
X142240000Y-96520000D02*
X142240000Y-93935000D01*
X151065000Y-79028249D02*
X151988249Y-78105000D01*
%TO.N,/pin_3*%
X154780000Y-86825000D02*
X154780000Y-86200000D01*
X154780000Y-88645000D02*
X154780000Y-86825000D01*
X146115000Y-78451751D02*
X147038249Y-79375000D01*
X146393249Y-77480000D02*
X146115000Y-77758249D01*
X146115000Y-77758249D02*
X146115000Y-78451751D01*
X149860000Y-81280000D02*
X149860000Y-78903249D01*
X149350000Y-94075000D02*
X154780000Y-88645000D01*
X154780000Y-86200000D02*
X152400000Y-83820000D01*
X147038249Y-79375000D02*
X147415000Y-79375000D01*
X148436751Y-77480000D02*
X146393249Y-77480000D01*
X149860000Y-78903249D02*
X148436751Y-77480000D01*
%TD*%
M02*
